<svg width="78" height="72" viewBox="0 0 78 72" fill="none" xmlns="http://www.w3.org/2000/svg">
<g clip-path="url(#clip0_3_10)">
<path d="M37.845 2.025C37.755 2.52 37.755 3.825 37.8 4.905C37.845 5.985 37.665 7.02 37.35 7.2C36.99 7.425 36.99 7.83 37.35 8.73C38.025 10.575 37.935 25.2 37.26 25.2C36.81 25.2 36.81 25.29 37.26 25.605C37.665 25.83 37.8 26.775 37.71 28.62L37.575 31.275L36.99 28.575C34.83 18.9 30.24 11.25 25.425 9.27C22.77 8.145 22.455 8.46 25.02 9.63C27.225 10.665 31.05 14.085 31.05 15.03C31.05 15.3 30.195 14.67 29.16 13.635C27.225 11.79 25.29 10.575 24.93 10.935C24.795 11.025 25.335 11.385 26.055 11.7C26.82 12.015 28.395 13.275 29.565 14.535C30.735 15.84 31.86 16.83 31.995 16.785C32.175 16.74 32.31 17.235 32.31 17.865V19.08L31.32 17.73C30.825 17.01 29.79 15.84 29.07 15.075C28.26 14.22 28.395 14.445 29.43 15.795C30.33 16.965 31.68 18.99 32.4 20.295C33.795 22.815 34.29 23.085 33.03 20.61C32.625 19.845 32.49 19.08 32.715 18.855C32.94 18.63 33.12 18.81 33.12 19.26C33.165 19.665 33.525 20.79 33.93 21.735C34.335 22.725 34.515 23.355 34.245 23.22C34.02 23.085 33.93 23.355 34.065 23.85C34.2 24.345 34.47 24.615 34.695 24.48C34.92 24.345 34.965 24.57 34.83 24.93C34.695 25.29 34.785 26.01 35.1 26.505C36 28.26 35.235 27.45 33.57 24.975C32.67 23.625 31.095 21.87 30.015 21.105C28.305 19.845 27.855 19.755 25.515 19.89C24.12 19.98 22.68 20.34 22.365 20.655C21.915 21.105 22.095 21.105 23.085 20.745C26.19 19.53 29.7 20.565 31.95 23.31C33.525 25.2 35.505 29.25 35.73 30.96C35.955 32.625 37.35 36 37.845 36C38.295 36 38.61 9.495 38.205 4.5C38.07 2.655 37.89 1.53 37.845 2.025Z" fill="#151515"/>
<path d="M49.32 3.64501C49.14 4.68001 49.095 5.62501 49.23 5.71501C49.32 5.80501 49.545 5.08501 49.725 4.05001C49.905 3.01501 49.95 2.11501 49.815 1.98001C49.725 1.84501 49.5 2.61001 49.32 3.64501Z" fill="#151515"/>
<path d="M48.645 7.74C48.6 8.19 48.465 8.55 48.285 8.55C48.06 8.55 47.925 9.9 47.88 11.61L47.835 14.625L48.33 12.375C48.6 11.115 48.96 9.9 49.185 9.585C49.365 9.315 49.32 8.595 49.095 8.01C48.78 7.245 48.645 7.2 48.645 7.74Z" fill="#151515"/>
<path d="M54.225 8.50501C54.585 9.27001 55.08 9.99001 55.35 10.125C55.575 10.26 55.395 9.67501 54.855 8.82001C53.73 6.88501 53.235 6.66001 54.225 8.50501Z" fill="#151515"/>
<path d="M18.36 8.415C19.125 8.505 20.475 8.505 21.285 8.415C22.05 8.325 21.42 8.235 19.8 8.235C18.18 8.235 17.55 8.325 18.36 8.415Z" fill="#151515"/>
<path d="M10.125 11.745C9.27 12.51 7.92 14.085 7.155 15.21C5.625 17.505 4.68 19.575 5.4 19.125C5.67 18.99 5.85 18.63 5.85 18.405C5.85 17.595 8.64 13.77 10.53 12.015C12.69 9.99 12.375 9.765 10.125 11.745Z" fill="#151515"/>
<path d="M56.475 10.845C56.79 11.295 59.85 12.285 60.12 12.015C60.255 11.925 59.4 11.52 58.32 11.16C57.195 10.8 56.385 10.62 56.475 10.845Z" fill="#151515"/>
<path d="M14.355 12.06C12.15 13.5 9.63 15.93 8.91 17.325C8.685 17.82 9.405 17.145 10.575 15.84C11.745 14.535 13.725 12.87 15.03 12.15C16.29 11.385 17.1 10.8 16.83 10.8C16.605 10.8 15.48 11.385 14.355 12.06Z" fill="#151515"/>
<path d="M20.835 12.015C21.51 12.105 22.5 12.105 23.085 12.015C23.625 11.925 23.085 11.835 21.825 11.835C20.61 11.835 20.115 11.925 20.835 12.015Z" fill="#151515"/>
<path d="M16.11 13.05C14.355 13.995 11.475 16.74 10.71 18.225C10.44 18.72 11.205 18.045 12.42 16.695C13.68 15.255 15.525 13.815 16.875 13.23C18.09 12.645 18.81 12.15 18.45 12.195C18.09 12.195 17.01 12.6 16.11 13.05Z" fill="#151515"/>
<path d="M24.3 12.24C24.435 12.375 25.245 12.825 26.1 13.275C27.315 13.86 27.54 13.905 27 13.365C26.64 13.005 25.83 12.555 25.2 12.375C24.57 12.195 24.165 12.15 24.3 12.24Z" fill="#151515"/>
<path d="M62.1 12.735C62.1 12.87 62.775 13.185 63.54 13.455C64.35 13.725 64.8 13.77 64.575 13.545C64.035 13.095 62.1 12.42 62.1 12.735Z" fill="#151515"/>
<path d="M67.14 15.705C69.48 17.775 70.785 19.71 72.045 22.86C72.495 24.03 72.855 24.66 72.9 24.3C72.945 22.005 68.49 15.615 65.925 14.31C65.43 14.085 65.97 14.715 67.14 15.705Z" fill="#151515"/>
<path d="M47.34 16.65C47.34 17.505 47.43 17.865 47.565 17.415C47.655 17.01 47.655 16.29 47.565 15.84C47.43 15.435 47.34 15.795 47.34 16.65Z" fill="#151515"/>
<path d="M57.285 18C56.205 18.225 54.99 18.63 54.585 18.9C53.865 19.35 53.865 19.395 54.675 19.125C55.17 18.945 56.79 18.63 58.23 18.405C63.09 17.595 66.015 18.945 68.715 23.22C69.255 24.03 69.255 24.03 68.985 23.175C68.58 21.87 67.185 20.205 65.565 19.035C63.9 17.865 60.165 17.415 57.285 18Z" fill="#151515"/>
<path d="M7.425 19.845C7.02 20.61 6.75 21.33 6.84 21.42C6.975 21.51 7.38 20.88 7.785 20.025C8.73 18.09 8.37 17.91 7.425 19.845Z" fill="#151515"/>
<path d="M9.225 20.745C8.82 21.51 8.595 22.23 8.73 22.365C8.865 22.5 9.18 22.05 9.45 21.375C9.72 20.7 10.035 19.935 10.17 19.755C10.305 19.53 10.305 19.35 10.17 19.35C10.035 19.35 9.585 19.98 9.225 20.745Z" fill="#151515"/>
<path d="M52.11 20.07C50.4 20.97 50.49 21.33 52.2 20.475C52.965 20.07 53.55 19.665 53.55 19.575C53.55 19.26 53.505 19.305 52.11 20.07Z" fill="#151515"/>
<path d="M4.095 21.195C3.825 22.005 3.69 22.725 3.78 22.815C3.87 22.905 4.185 22.365 4.455 21.555C4.725 20.745 4.86 20.025 4.77 19.935C4.68 19.845 4.365 20.385 4.095 21.195Z" fill="#151515"/>
<path d="M47.25 20.88C47.25 21.015 47.655 21.33 48.15 21.6C48.825 21.96 49.275 21.96 49.86 21.6C50.58 21.105 50.58 21.105 49.815 21.33C49.365 21.465 48.6 21.375 48.105 21.15C47.655 20.88 47.25 20.79 47.25 20.88Z" fill="#151515"/>
<path d="M19.08 23.04C17.955 24.075 16.605 25.56 16.11 26.28C15.615 27.045 16.02 26.73 17.055 25.56C18.09 24.39 19.575 22.905 20.385 22.275C21.195 21.69 21.69 21.15 21.465 21.15C21.285 21.15 20.205 22.005 19.08 23.04Z" fill="#151515"/>
<path d="M55.485 21.825C54.675 22.185 54 22.59 54 22.725C54 22.95 57.15 21.78 57.555 21.375C57.96 20.97 56.925 21.195 55.485 21.825Z" fill="#151515"/>
<path d="M63.99 21.6C64.395 21.87 65.385 22.815 66.15 23.76C66.96 24.66 67.41 25.02 67.14 24.525C66.465 23.13 64.485 21.15 63.81 21.15C63.45 21.15 63.495 21.33 63.99 21.6Z" fill="#151515"/>
<path d="M5.85 23.22C5.355 24.435 5.265 25.515 5.625 25.11C5.985 24.75 6.75 22.05 6.48 22.05C6.39 22.05 6.075 22.59 5.85 23.22Z" fill="#151515"/>
<path d="M7.47 25.245C7.065 26.55 6.75 27.81 6.795 28.08C6.795 28.35 7.2 27.36 7.695 25.875C8.145 24.435 8.415 23.13 8.325 23.04C8.235 22.95 7.83 23.94 7.47 25.245Z" fill="#151515"/>
<path d="M50.445 25.065C48.87 26.28 46.755 27.765 45.765 28.44C44.73 29.16 44.1 29.7 44.325 29.7C44.55 29.7 43.335 31.185 41.625 32.94L38.475 36.225L41.625 33.255C43.38 31.59 45 30.33 45.225 30.42C45.495 30.51 46.08 29.925 46.575 29.16C47.385 27.855 48.33 27 52.425 23.985C53.19 23.445 53.685 22.95 53.55 22.95C53.37 22.95 52.02 23.895 50.445 25.065Z" fill="#151515"/>
<path d="M69.525 25.02C69.66 25.56 70.065 26.865 70.425 27.945C70.965 29.655 71.055 29.7 70.785 28.35C70.65 27.495 70.245 26.145 69.93 25.425C69.57 24.66 69.435 24.48 69.525 25.02Z" fill="#151515"/>
<path d="M2.565 26.55C2.43 27.405 2.16 29.25 2.07 30.6C1.89 32.49 1.98 32.175 2.475 29.475C2.835 27.495 3.06 25.65 2.97 25.425C2.925 25.155 2.7 25.695 2.565 26.55Z" fill="#151515"/>
<path d="M72.9 25.875C72.9 26.28 72.675 26.46 72.405 26.28C72.135 26.145 72.27 26.55 72.72 27.27C73.44 28.35 73.575 29.475 73.575 35.325C73.575 39.015 73.44 43.38 73.26 45C73.035 47.34 73.08 47.655 73.44 46.575C73.71 45.81 73.98 40.995 74.025 35.775C74.115 28.35 73.98 26.235 73.53 25.74C72.99 25.245 72.9 25.245 72.9 25.875Z" fill="#151515"/>
<path d="M68.265 27.9C68.76 30.645 69.3 31.95 69.03 29.7C68.85 28.575 68.58 27.36 68.355 27C68.13 26.595 68.085 26.91 68.265 27.9Z" fill="#151515"/>
<path d="M30.375 27.45C29.7 27.72 29.835 27.81 31.005 27.765C32.265 27.765 32.85 28.08 34.11 29.52C34.965 30.465 35.46 30.87 35.19 30.375C34.65 29.295 32.895 27.675 31.95 27.36C31.59 27.225 30.87 27.27 30.375 27.45Z" fill="#151515"/>
<path d="M4.185 29.565C3.69 32.58 3.87 42.705 4.455 44.325L4.95 45.675L4.77 44.28C4.14 39.915 4.005 35.73 4.455 31.995C4.95 27.405 4.815 25.965 4.185 29.565Z" fill="#151515"/>
<path d="M14.445 28.53C14.085 28.935 13.725 29.79 13.68 30.375C13.59 31.41 13.59 31.41 14.445 30.555C14.94 30.06 15.3 29.205 15.21 28.71C15.075 27.81 15.03 27.81 14.445 28.53Z" fill="#151515"/>
<path d="M26.55 29.475C25.515 30.33 24.525 31.05 24.345 31.05C24.165 31.05 24.03 31.41 24.03 31.905C24.03 33.075 25.515 32.58 25.83 31.23C26.01 30.645 26.865 29.655 27.765 29.025C28.71 28.395 29.25 27.9 28.935 27.9C28.665 27.9 27.585 28.62 26.55 29.475Z" fill="#151515"/>
<path d="M54.99 29.205C54.63 29.43 55.26 29.475 56.565 29.385C59.085 29.115 60.795 30.15 61.875 32.58C62.19 33.345 62.505 33.705 62.505 33.39C62.595 32.355 61.155 30.33 59.85 29.52C58.5 28.755 55.98 28.575 54.99 29.205Z" fill="#151515"/>
<path d="M6.12 30.645C5.76 32.445 5.85 41.76 6.21 43.11C6.39 43.695 6.525 40.815 6.525 36.72C6.525 32.625 6.48 29.25 6.48 29.25C6.435 29.25 6.3 29.88 6.12 30.645Z" fill="#151515"/>
<path d="M52.335 30.6C51.525 31.095 50.85 31.59 50.85 31.725C50.85 31.815 51.57 31.5 52.425 31.005C53.28 30.465 54 29.97 54 29.88C54 29.61 53.865 29.655 52.335 30.6Z" fill="#151515"/>
<path d="M12.87 32.94C12.51 34.38 12.555 39.735 12.96 40.365C13.14 40.635 13.275 38.88 13.275 36.405C13.275 33.975 13.23 31.95 13.23 31.95C13.185 31.95 13.05 32.4 12.87 32.94Z" fill="#151515"/>
<path d="M47.79 33.39C46.485 34.155 45.495 34.875 45.63 35.01C45.855 35.19 50.4 32.49 50.4 32.13C50.4 31.86 50.4 31.86 47.79 33.39Z" fill="#151515"/>
<path d="M69.48 36.9C69.48 39.24 69.525 40.23 69.615 39.015C69.705 37.845 69.705 35.955 69.615 34.74C69.525 33.57 69.48 34.56 69.48 36.9Z" fill="#151515"/>
<path d="M71.64 35.775C71.595 36.99 71.46 39.15 71.325 40.5L71.145 42.975L71.595 40.5C71.82 39.15 71.955 36.99 71.865 35.775L71.73 33.525L71.64 35.775Z" fill="#151515"/>
<path d="M22.77 34.92C22.275 36.225 22.5 37.665 23.31 38.295C23.985 38.88 24.03 38.835 23.445 38.115C23.04 37.62 22.905 36.765 23.085 35.775C23.355 34.11 23.22 33.75 22.77 34.92Z" fill="#151515"/>
<path d="M48.6 34.65C48.105 34.965 48.33 35.01 49.365 34.83C50.31 34.65 51.12 34.74 51.615 35.145C52.335 35.73 52.38 35.685 51.795 34.965C51.12 34.11 49.635 33.975 48.6 34.65Z" fill="#151515"/>
<path d="M62.685 36.9C62.685 38.25 62.775 38.835 62.865 38.115C62.955 37.44 62.955 36.36 62.865 35.64C62.775 34.965 62.685 35.55 62.685 36.9Z" fill="#151515"/>
<path d="M41.625 35.955C40.14 36.315 39.195 36.675 39.51 36.81C40.185 37.035 45.945 36.09 46.71 35.595C47.61 35.055 44.505 35.28 41.625 35.955Z" fill="#151515"/>
<path d="M1.485 38.475C1.485 40.185 1.575 40.86 1.665 39.915C1.755 39.015 1.755 37.575 1.665 36.765C1.575 36 1.485 36.72 1.485 38.475Z" fill="#151515"/>
<path d="M32.085 36.945C30.555 37.17 28.845 37.575 28.26 37.8C27.45 38.16 27.585 38.205 29.025 37.98L30.825 37.755L28.35 39.15C27 39.915 25.56 40.86 25.2 41.265C24.615 41.94 24.66 41.94 25.65 41.265C28.125 39.6 30.555 38.475 33.75 37.53C37.26 36.45 36.765 36.27 32.085 36.945Z" fill="#151515"/>
<path d="M33.795 40.545C31.725 42.795 30.78 43.515 30.555 43.11C30.24 42.66 30.15 42.66 30.15 43.065C30.15 43.38 29.385 44.505 28.485 45.54C26.82 47.385 26.82 47.43 28.215 46.26C29.025 45.585 30.105 44.955 30.6 44.775C31.095 44.64 31.5 44.235 31.5 43.965C31.5 43.695 32.85 42.075 34.515 40.41C36.18 38.7 37.35 37.35 37.125 37.395C36.855 37.395 35.37 38.835 33.795 40.545Z" fill="#151515"/>
<path d="M37.8 48.375C37.755 54.315 37.755 59.805 37.8 60.525C37.8 61.29 37.62 62.505 37.35 63.225C36.99 64.17 36.99 64.62 37.305 64.71C37.62 64.8 37.8 66.285 37.8 68.31C37.8 70.155 37.935 71.595 38.07 71.46C38.205 71.325 38.295 64.845 38.295 57.105C38.295 43.965 38.34 43.155 38.925 45.855C40.23 51.84 42.12 56.25 44.91 59.94C46.485 62.055 50.265 65.115 50.715 64.665C50.805 64.53 50.355 64.125 49.59 63.72C48.195 63 43.65 58.275 43.65 57.555C43.65 57.285 44.64 58.14 45.9 59.4C47.88 61.47 51.075 63.36 51.615 62.865C51.705 62.73 51.165 62.46 50.445 62.19C48.465 61.47 46.215 59.67 44.775 57.6C43.155 55.215 43.56 54.855 45.27 57.105C46.62 58.905 48.645 60.48 50.175 60.975C50.67 61.11 50.355 60.84 49.455 60.345C47.475 59.265 44.865 56.43 43.65 54C43.155 53.01 42.66 52.2 42.57 52.2C42.255 52.2 42.84 54 43.245 54.27C43.47 54.405 43.65 54.72 43.65 55.035C43.65 55.845 42.84 54.81 42.075 52.965C41.67 51.975 41.535 51.345 41.805 51.48C42.03 51.615 42.12 51.345 41.985 50.85C41.85 50.355 41.58 50.04 41.4 50.175C41.175 50.31 40.86 50.175 40.68 49.905C40.5 49.545 40.545 49.5 40.86 49.68C41.535 50.085 41.535 49.995 40.725 47.745C40.365 46.755 40.185 45.9 40.23 45.9C40.32 45.9 40.95 46.8 41.625 47.925C42.795 49.95 45.135 52.65 45.72 52.65C45.9 52.65 45.18 51.75 44.19 50.67C42.165 48.465 40.14 44.775 39.87 42.84C39.78 42.165 39.285 40.725 38.79 39.6L37.845 37.575L37.8 48.375Z" fill="#151515"/>
<path d="M51.3 39.6C50.985 40.32 50.58 40.815 50.355 40.725C50.175 40.59 49.68 41.085 49.275 41.85C48.51 43.38 45.585 44.955 43.695 45C43.065 45 41.985 44.46 41.265 43.74L39.915 42.525L40.725 43.785C42.21 46.125 45.225 45.855 49.23 42.975C50.445 42.12 51.3 41.4 51.165 41.4C50.985 41.4 51.165 40.77 51.525 40.005C51.93 39.24 52.155 38.52 52.065 38.43C51.975 38.295 51.615 38.835 51.3 39.6Z" fill="#151515"/>
<path d="M61.875 41.445C61.695 42.21 61.29 42.93 60.93 43.065C60.57 43.2 60.3 43.695 60.3 44.19C60.3 44.685 60.075 45.495 59.805 46.035C59.535 46.575 59.895 46.35 60.57 45.495C61.245 44.64 61.875 43.65 61.92 43.245C61.965 42.84 62.145 41.985 62.325 41.265C62.505 40.59 62.55 40.05 62.415 40.05C62.28 40.05 62.055 40.68 61.875 41.445Z" fill="#151515"/>
<path d="M13.86 42.12C14.355 43.11 15.705 44.37 15.885 44.055C15.93 43.965 15.39 43.245 14.67 42.525C13.77 41.625 13.545 41.49 13.86 42.12Z" fill="#151515"/>
<path d="M22.275 42.975C21.285 43.605 20.7 44.1 20.925 44.1C21.465 44.1 24.3 42.39 24.3 42.075C24.3 41.76 24.255 41.76 22.275 42.975Z" fill="#151515"/>
<path d="M68.445 44.82C68.175 46.26 68.04 47.475 68.13 47.565C68.22 47.7 68.58 46.62 68.85 45.225C69.12 43.83 69.3 42.57 69.165 42.48C69.075 42.39 68.76 43.425 68.445 44.82Z" fill="#151515"/>
<path d="M1.845 45.495C1.8 46.665 2.115 48.195 2.52 48.87C3.105 49.905 3.195 49.995 3.015 49.14C2.88 48.6 2.97 48.15 3.195 48.15C3.42 48.15 3.375 47.7 3.105 47.115C2.79 46.575 2.385 45.495 2.205 44.775C1.935 43.56 1.89 43.65 1.845 45.495Z" fill="#151515"/>
<path d="M17.46 44.415C18 44.505 18.9 44.505 19.485 44.415C20.025 44.325 19.575 44.235 18.45 44.235C17.325 44.235 16.875 44.325 17.46 44.415Z" fill="#151515"/>
<path d="M70.245 46.62C69.975 48.06 69.84 49.275 69.93 49.365C70.02 49.5 70.38 48.42 70.65 47.025C70.92 45.63 71.1 44.37 70.965 44.28C70.875 44.19 70.56 45.225 70.245 46.62Z" fill="#151515"/>
<path d="M6.795 45C6.75 46.125 8.82 50.085 9.945 51.12C10.53 51.66 11.52 52.245 12.15 52.38C12.96 52.605 12.78 52.425 11.61 51.795C9.9 50.805 8.505 48.915 7.47 46.08C7.11 45.09 6.795 44.64 6.795 45Z" fill="#151515"/>
<path d="M5.175 47.025C6.03 50.985 9.63 55.125 12.6 55.575L14.175 55.8L12.465 55.17C9.18 53.865 7.74 52.29 5.94 48.195C5.355 46.8 5.04 46.26 5.175 47.025Z" fill="#151515"/>
<path d="M25.2 48.195C23.85 49.23 20.25 51.165 18 52.02C17.145 52.335 16.74 52.605 17.1 52.605C18.09 52.65 23.85 49.77 25.425 48.42C27 47.07 26.82 46.845 25.2 48.195Z" fill="#151515"/>
<path d="M57.555 48.87C55.575 50.985 52.29 53.1 51.03 53.1C50.445 53.1 49.905 53.28 49.77 53.505C49.41 54.045 52.11 53.415 53.775 52.515C55.125 51.795 57.78 49.5 58.905 48.015C59.94 46.71 59.22 47.16 57.555 48.87Z" fill="#151515"/>
<path d="M66.15 52.02C65.565 53.46 64.035 55.71 62.595 57.285C60.84 59.22 60.48 59.76 61.47 59.04C62.235 58.5 63.405 57.375 64.08 56.475C65.385 54.765 67.725 49.995 67.41 49.68C67.275 49.59 66.735 50.625 66.15 52.02Z" fill="#151515"/>
<path d="M71.64 51.615C70.965 53.775 71.28 54.09 72 51.975C72.315 51.075 72.45 50.265 72.36 50.13C72.225 50.04 71.91 50.715 71.64 51.615Z" fill="#151515"/>
<path d="M67.5 54.27C66.555 56.115 65.07 58.05 63.495 59.49C62.1 60.795 61.335 61.605 61.785 61.38C63.585 60.39 66.555 57.015 67.905 54.405C68.715 52.92 69.3 51.615 69.21 51.48C69.075 51.39 68.31 52.605 67.5 54.27Z" fill="#151515"/>
<path d="M3.6 51.885C3.6 53.28 7.74 58.545 9.63 59.49C10.17 59.715 9.585 59.085 8.415 58.05C7.245 57.015 5.67 55.125 4.95 53.82C4.185 52.56 3.6 51.705 3.6 51.885Z" fill="#151515"/>
<path d="M23.535 52.83C21.285 54 20.52 54.675 22.095 54.09C23.535 53.505 26.46 51.75 25.875 51.795C25.65 51.795 24.57 52.245 23.535 52.83Z" fill="#151515"/>
<path d="M27.315 52.245C27.585 52.605 27.9 53.37 28.035 54C28.215 54.765 28.26 54.675 28.215 53.595C28.17 52.65 27.855 51.975 27.45 51.84C26.91 51.66 26.865 51.75 27.315 52.245Z" fill="#151515"/>
<path d="M69.615 56.43C68.94 57.735 67.32 59.895 66.015 61.2C64.35 62.91 64.08 63.315 65.115 62.64C67.095 61.245 71.595 54.81 71.01 54.225C70.92 54.135 70.29 55.125 69.615 56.43Z" fill="#151515"/>
<path d="M17.325 55.17L14.625 55.8L17.01 55.575C18.27 55.485 19.71 55.17 20.16 54.945C21.105 54.36 20.745 54.405 17.325 55.17Z" fill="#151515"/>
<path d="M27.675 57.915C27.495 59.085 27.18 61.2 26.955 62.55C26.505 65.025 26.28 66.645 25.92 69.975C25.74 71.28 25.785 71.505 26.1 70.875C26.325 70.38 26.505 69.21 26.505 68.265C26.55 67.23 26.82 66.465 27.18 66.33C27.63 66.15 27.765 65.655 27.585 64.665C27.495 63.855 27.585 61.605 27.855 59.67C28.125 57.69 28.26 56.025 28.17 55.935C28.035 55.8 27.855 56.7 27.675 57.915Z" fill="#151515"/>
<path d="M10.8 60.12C10.8 60.435 13.14 61.245 13.365 61.02C13.455 60.93 12.915 60.66 12.195 60.39C11.43 60.12 10.8 59.985 10.8 60.12Z" fill="#151515"/>
<path d="M58.275 60.525C57.555 60.84 57.24 61.155 57.645 61.155C58.005 61.2 58.725 60.885 59.22 60.525C60.3 59.715 60.03 59.715 58.275 60.525Z" fill="#151515"/>
<path d="M15.75 62.055C16.83 62.685 18.72 63.18 18.225 62.64C18 62.415 17.19 62.1 16.425 61.92C15.525 61.74 15.3 61.785 15.75 62.055Z" fill="#151515"/>
<path d="M58.725 62.37L57.375 63.045L58.725 62.775C59.49 62.595 60.255 62.28 60.525 62.055C61.11 61.47 60.3 61.605 58.725 62.37Z" fill="#151515"/>
<path d="M53.46 63.315C54.27 63.405 55.485 63.405 56.16 63.315C56.835 63.225 56.16 63.135 54.675 63.135C53.19 63.135 52.65 63.225 53.46 63.315Z" fill="#151515"/>
<path d="M20.475 64.305C21.195 65.16 21.375 65.97 21.33 68.805C21.285 72.135 21.285 72.18 21.735 70.065C22.275 67.365 21.87 65.16 20.565 64.08L19.575 63.225L20.475 64.305Z" fill="#151515"/>
<path d="M54.18 65.79C55.17 66.015 56.79 66.015 57.78 65.79C59.4 65.43 59.175 65.385 56.025 65.385C52.92 65.385 52.695 65.43 54.18 65.79Z" fill="#151515"/>
<path d="M0 18.45C0 33.66 0.09 36.9 0.63 36.9C1.035 36.9 1.305 35.82 1.485 32.94C2.115 24.525 5.04 16.695 9.18 12.51C11.655 9.99 15.21 8.1 17.505 8.1C18.63 8.1 18.945 7.92 18.72 7.425C18.585 7.065 18.63 6.75 18.855 6.75C19.08 6.75 19.485 7.065 19.8 7.425C20.115 7.785 20.88 8.1 21.51 8.1C24.21 8.1 26.325 9.18 29.25 12.15C32.58 15.48 34.425 18.855 36.18 24.75L37.26 28.575L37.305 19.08C37.35 13.32 37.17 9.045 36.9 8.325C36.54 7.38 36.54 6.975 36.9 6.75C37.215 6.57 37.395 5.625 37.35 4.68C37.215 1.845 37.305 0.899997 37.8 0.899997C38.07 0.899997 38.25 2.16 38.25 3.825C38.25 5.445 38.43 6.75 38.7 6.75C38.97 6.75 38.97 7.155 38.7 7.92C38.43 8.55 38.25 14.715 38.25 22.14C38.25 37.395 37.8 37.035 43.29 26.685C46.62 20.43 46.665 20.205 47.25 15.345C47.565 12.645 47.655 9.855 47.52 9.18C47.25 8.235 47.34 8.055 47.835 8.235C48.375 8.415 48.555 7.83 48.825 5.535C49.185 2.205 49.455 1.26 49.95 1.575C50.13 1.665 49.995 3.24 49.725 5.04C49.365 6.885 49.32 8.37 49.545 8.46C49.77 8.55 49.68 9.18 49.32 9.81C48.735 10.935 47.52 17.505 47.79 17.82C47.88 17.865 49.185 15.48 50.76 12.42C52.56 8.865 53.55 6.39 53.55 5.355C53.55 3.465 54 1.8 54.495 1.8C54.675 1.8 54.765 2.565 54.63 3.465L54.405 5.175L55.35 3.465C56.745 0.899997 56.97 1.755 55.62 4.455C54.99 5.715 54.45 7.11 54.45 7.56C54.45 9.09 57.015 10.71 61.785 12.15C67.365 13.86 72.135 18.99 73.125 24.39C73.305 25.38 73.665 25.965 73.935 25.83C74.34 25.695 74.475 27.945 74.43 34.29C74.385 41.265 74.16 43.83 73.395 47.385C72.135 53.235 69.975 57.825 66.96 61.02C64.305 63.855 62.28 65.025 58.95 65.745C57.735 66.015 56.7 66.42 56.7 66.69C56.7 67.005 56.52 67.005 56.16 66.69C55.845 66.465 54.495 66.015 53.145 65.745C50.085 65.115 48.42 64.08 45.765 61.245C42.795 58.095 40.095 52.29 38.52 45.675C38.43 45.18 38.385 49.005 38.43 54.225C38.475 59.445 38.655 64.08 38.88 64.53C39.195 65.16 39.15 65.295 38.79 65.07C38.385 64.845 38.25 65.7 38.25 68.355V72H58.05H77.85V53.28C77.85 40.725 77.715 34.695 77.4 34.875C77.13 35.055 77.04 35.325 77.13 35.505C77.265 35.685 76.95 35.82 76.5 35.865C75.915 35.91 75.78 35.685 75.915 35.1C76.05 34.605 76.275 34.245 76.455 34.29C77.85 34.47 77.85 34.2 77.85 17.1V-2.86102e-06H59.625H41.445L40.725 1.305C39.96 2.835 38.835 3.78 39.33 2.475C39.465 2.025 39.51 1.305 39.375 0.854997C39.105 0.0449971 38.205 -2.86102e-06 19.53 -2.86102e-06H0V18.45Z" fill="#ECECEC"/>
<path d="M50.625 14.13C48.06 19.125 47.565 20.295 48.06 20.79C48.555 21.285 49.05 20.925 50.85 18.81C53.505 15.795 56.835 13.5 58.5 13.5C59.985 13.5 61.2 14.76 61.2 16.335C61.2 17.28 61.425 17.55 62.1 17.55C63.63 17.55 66.42 19.215 67.86 20.97C73.08 27.315 73.35 44.19 68.355 54.09C66.015 58.77 61.425 62.64 57.42 63.315C55.44 63.675 55.35 63.72 55.935 64.53C56.52 65.34 56.79 65.385 59.085 64.845C68.22 62.82 73.53 52.065 73.575 35.775C73.575 30.465 73.44 29.25 72.72 27.9C72.225 27 72.045 26.325 72.36 26.19C73.575 25.785 70.92 19.98 68.22 17.19C66.105 14.94 64.53 14.04 59.4 12.15C55.44 10.71 54.54 10.17 54.045 8.91C53.82 8.325 52.92 9.72 50.625 14.13Z" fill="#ECECEC"/>
<path d="M16.2 9.17999C11.295 10.485 7.56 14.355 5.04 20.7C2.7 26.505 1.35 36.9 2.925 36.9C3.465 36.9 3.6 36.315 3.6 34.2C3.6 30.6 5.085 24.48 6.885 20.565C9.405 15.165 13.995 10.935 18.36 10.08C19.17 9.89999 19.8 9.49499 19.8 9.17999C19.8 8.41499 18.9 8.41499 16.2 9.17999Z" fill="#ECECEC"/>
<path d="M20.52 9.225C20.7 9.63 21.33 9.9 22.095 9.9C23.715 9.9 26.19 10.89 28.305 12.42L29.925 13.545L28.215 11.97C26.235 10.17 24.345 9.225 21.96 8.82C20.565 8.55 20.295 8.64 20.52 9.225Z" fill="#ECECEC"/>
<path d="M15.75 11.88C10.62 14.58 6.435 21.285 5.22 28.62C4.095 35.505 4.005 36.9 4.635 36.9C4.995 36.9 5.4 35.46 5.805 32.535C6.93 24.21 9.36 18.54 13.365 14.85C15.66 12.735 17.91 11.7 20.16 11.7C20.745 11.7 21.06 11.52 20.925 11.25C20.43 10.485 17.865 10.8 15.75 11.88Z" fill="#ECECEC"/>
<path d="M21.6 11.205C21.6 11.385 22.5 11.7 23.58 11.79C24.66 11.925 26.19 12.465 26.955 13.005C27.72 13.545 28.35 13.815 28.35 13.59C28.35 13.32 27.315 12.6 26.01 11.97C23.67 10.8 21.6 10.44 21.6 11.205Z" fill="#ECECEC"/>
<path d="M18.72 12.645C12.825 14.04 8.145 21.465 6.75 31.635C6.03 37.26 5.85 36.9 9.18 36.9H12.015L12.6 34.065C12.915 32.535 13.23 30.87 13.275 30.33C13.32 29.43 14.535 27.675 17.28 24.435C18.855 22.59 21.915 20.43 23.58 19.98C24.21 19.845 24.885 19.53 24.975 19.305C25.29 18.81 21.51 12.15 20.925 12.195C20.7 12.24 19.71 12.42 18.72 12.645Z" fill="#ECECEC"/>
<path d="M23.31 14.265C23.985 15.435 24.93 17.055 25.425 17.82C25.92 18.63 26.955 19.485 27.855 19.8C30.285 20.61 31.365 21.42 32.895 23.535C33.93 24.93 34.2 25.155 33.975 24.3C33.165 21.645 30.825 17.73 28.8 15.705C26.64 13.545 25.785 13.05 23.265 12.42L22.005 12.105L23.31 14.265Z" fill="#ECECEC"/>
<path d="M57.24 14.445C55.755 15.03 52.335 17.91 51.165 19.53L50.175 20.925L51.3 20.205C53.145 19.035 57.51 17.55 59.175 17.55C60.975 17.55 61.245 16.65 60.03 14.94C59.31 13.86 58.815 13.77 57.24 14.445Z" fill="#ECECEC"/>
<path d="M54.9 19.53C48.69 22.185 48.915 22.005 44.865 27.405C42.705 30.24 41.085 32.67 41.175 32.76C41.445 33.03 43.56 30.465 43.47 30.015C43.47 29.79 44.055 29.295 44.775 28.935C45.54 28.53 47.16 27.36 48.375 26.325C51.93 23.4 56.61 20.7 58.185 20.7C59.4 20.7 60.75 19.845 60.75 19.125C60.75 18.09 57.78 18.315 54.9 19.53Z" fill="#ECECEC"/>
<path d="M61.2 19.35C61.2 19.98 61.65 20.34 62.91 20.655C72.315 23.22 72.27 48.51 62.865 58.05C60.75 60.21 58.59 61.38 56.115 61.83C55.17 62.01 54.54 62.325 54.72 62.595C55.08 63.225 57.915 62.595 60.39 61.38C64.665 59.22 67.86 54.675 69.795 47.925C70.695 44.82 70.83 43.335 70.83 36.9C70.83 30.195 70.74 29.205 69.795 26.55C69.21 24.93 68.265 22.95 67.68 22.14C65.655 19.125 61.2 17.19 61.2 19.35Z" fill="#ECECEC"/>
<path d="M22.725 21.33C19.305 22.905 15.3 27.495 15.3 29.835C15.3 30.285 15.12 30.555 14.895 30.375C14.4 30.105 13.725 32.175 13.32 34.92L13.05 36.81L17.505 36.855L21.96 36.9L22.815 34.56C23.265 33.255 23.58 31.905 23.58 31.59C23.535 31.32 23.625 31.05 23.805 31.05C23.985 31.05 25.155 30.24 26.505 29.25C27.81 28.26 29.16 27.45 29.52 27.45C29.88 27.45 30.15 27.225 30.15 26.955C30.15 25.965 26.325 20.295 25.65 20.295C25.29 20.25 23.94 20.745 22.725 21.33ZM16.74 35.325C16.875 35.955 16.785 36.45 16.605 36.45C16.38 36.45 16.2 35.955 16.2 35.325C16.2 34.695 16.29 34.2 16.38 34.2C16.47 34.2 16.65 34.695 16.74 35.325Z" fill="#ECECEC"/>
<path d="M27.495 21.015C28.125 22.635 31.455 27.045 32.175 27.27C32.67 27.45 33.57 27.99 34.155 28.53C35.145 29.385 35.145 29.25 33.795 26.73C32.22 23.715 30.105 21.42 28.395 20.925C27.81 20.745 27.405 20.79 27.495 21.015Z" fill="#ECECEC"/>
<path d="M45.225 24.345C44.37 26.055 43.695 27.45 43.785 27.45C44.01 27.45 48.15 22.14 48.15 21.87C48.15 21.78 47.88 21.6 47.52 21.465C47.07 21.285 46.35 22.14 45.225 24.345Z" fill="#ECECEC"/>
<path d="M58.005 21.6C54.135 22.77 46.8 28.08 46.125 30.195C45.945 30.69 45.54 31.005 45.225 30.915C44.91 30.78 43.38 31.995 41.805 33.57C39.105 36.315 39.015 36.495 40.275 36.225C43.2 35.55 46.395 34.155 49.545 32.13C51.345 30.96 53.73 29.655 54.855 29.25C56.745 28.575 57.06 28.215 58.59 25.155C59.535 23.31 60.3 21.69 60.3 21.465C60.3 21.06 59.58 21.105 58.005 21.6Z" fill="#ECECEC"/>
<path d="M60.75 21.87C60.75 22.275 60.075 23.985 59.22 25.695C58.14 27.855 57.87 28.8 58.275 28.8C59.76 28.8 61.245 29.97 62.145 31.815C63 33.57 63.09 34.29 62.82 37.935C62.64 40.23 62.505 42.525 62.505 43.065C62.46 43.65 62.28 44.1 62.055 44.1C61.83 44.1 61.335 44.73 60.93 45.495C59.355 48.6 53.73 53.55 51.795 53.55C49.815 53.595 49.86 54.27 52.02 57.825L54.135 61.29L55.8 61.02C61.38 60.12 65.43 55.215 67.95 46.125C68.76 43.29 68.985 41.355 68.985 36.9C68.985 30.78 68.265 27.18 66.375 24.255C64.845 21.87 60.75 20.16 60.75 21.87Z" fill="#ECECEC"/>
<path d="M29.25 28.395C27.54 29.07 26.19 30.555 25.83 32.085C25.65 33.03 25.425 33.255 25.155 32.805C24.975 32.49 24.75 32.31 24.66 32.4C24.12 33.075 23.4 35.28 23.4 36.09C23.4 37.035 23.49 37.035 30.015 36.72C33.66 36.54 36.72 36.36 36.81 36.27C36.855 36.18 35.775 34.515 34.38 32.58C32.985 30.6 31.725 28.755 31.635 28.44C31.365 27.81 30.78 27.81 29.25 28.395Z" fill="#ECECEC"/>
<path d="M33.12 29.565C34.605 31.86 36.45 34.335 36.45 34.02C36.45 33.165 33.3 28.35 32.715 28.35C32.49 28.35 32.67 28.89 33.12 29.565Z" fill="#ECECEC"/>
<path d="M52.38 31.32C50.94 32.22 49.05 33.345 48.285 33.84C47.475 34.335 46.8 34.785 46.8 34.875C46.8 35.235 51.525 33.66 52.56 32.895C54.18 31.725 56.07 29.7 55.53 29.7C55.26 29.7 53.865 30.42 52.38 31.32Z" fill="#ECECEC"/>
<path d="M54.36 32.175C52.92 33.525 51.975 34.74 52.2 34.875C52.875 35.28 52.74 38.115 51.975 39.6C51.615 40.32 51.345 41.13 51.39 41.355C51.525 41.895 47.025 44.91 45.585 45.27C45 45.45 44.55 45.63 44.55 45.72C44.55 46.26 48.915 52.785 49.41 52.965C52.245 54.09 60.3 47.25 60.3 43.74C60.3 42.84 60.48 42.345 60.75 42.525C62.19 43.425 62.82 34.605 61.47 32.04C59.85 28.935 57.735 28.935 54.36 32.175Z" fill="#ECECEC"/>
<path d="M47.475 36.045C45.99 36.495 43.875 36.9 42.75 36.945C41.625 36.945 40.275 37.125 39.69 37.26C38.745 37.575 38.745 37.665 40.995 40.86C42.255 42.705 43.2 44.28 43.065 44.37C42.93 44.505 42.03 43.47 40.995 42.03C38.925 39.15 38.565 39.195 40.275 42.075C41.895 44.91 43.245 45.36 46.17 44.1C47.475 43.515 48.51 42.66 49.095 41.625C49.635 40.77 50.175 40.14 50.4 40.275C50.94 40.59 51.84 38.07 51.66 36.63C51.48 35.01 50.895 34.92 47.475 36.045Z" fill="#ECECEC"/>
<path d="M0 54.675V72H9.81H19.575L20.61 69.615C22.275 65.745 21.285 64.305 15.75 62.37C10.8 60.615 8.73 59.49 6.75 57.33C4.77 55.17 3.465 52.83 2.745 50.04C2.43 49.005 2.025 48.24 1.755 48.375C1.485 48.555 1.35 47.97 1.44 46.935C1.485 45.99 1.485 43.47 1.44 41.265C1.35 38.115 1.215 37.35 0.675 37.35C0.09 37.35 0 39.555 0 54.675Z" fill="#ECECEC"/>
<path d="M2.25 41.22C2.25 43.335 2.475 45.495 2.79 46.035C3.06 46.575 3.33 47.745 3.375 48.69C3.51 50.985 5.535 54.9 7.65 57.06C9.405 58.815 13.005 60.84 15.39 61.38C18 61.965 20.745 63.45 21.51 64.755L22.32 66.06L25.11 60.57C29.385 52.2 28.755 50.175 23.58 55.44C20.115 58.95 18.72 59.85 16.65 59.85C15.435 59.85 15.165 59.58 14.4 57.825C13.815 56.475 13.275 55.8 12.69 55.8C10.89 55.8 7.875 53.325 6.48 50.58C4.95 47.7 3.6 42.435 3.6 39.33C3.6 37.89 3.42 37.35 2.925 37.35C2.385 37.35 2.25 38.07 2.25 41.22Z" fill="#ECECEC"/>
<path d="M4.275 38.565C4.365 39.285 4.68 41.355 4.995 43.2C5.895 49.095 8.145 53.01 11.61 54.54C13.275 55.305 13.68 55.35 13.995 54.855C14.715 53.73 14.445 53.235 13.005 52.92C9.315 52.2 7.155 48.78 5.985 41.85C5.49 38.97 4.995 37.35 4.635 37.35C4.275 37.35 4.14 37.8 4.275 38.565Z" fill="#ECECEC"/>
<path d="M6.525 39.915C7.245 46.125 8.46 49.14 10.935 51.03C12.87 52.515 14.4 52.56 14.76 51.21C14.895 50.625 15.66 48.915 16.425 47.385C17.82 44.595 17.82 44.55 16.875 44.55C14.715 44.55 13.32 42.66 12.42 38.565C12.15 37.395 12.015 37.35 9.18 37.35H6.255L6.525 39.915Z" fill="#ECECEC"/>
<path d="M13.59 39.51C13.995 41.805 15.345 43.47 17.1 43.83C18 44.055 18.72 43.65 20.835 41.625C23.175 39.42 23.355 39.105 22.86 38.25C22.32 37.44 21.87 37.35 17.73 37.395L13.185 37.44L13.59 39.51Z" fill="#ECECEC"/>
<path d="M23.625 37.8C23.94 38.34 25.515 38.34 26.775 37.8C27.45 37.53 27.135 37.395 25.515 37.395C24.165 37.35 23.445 37.53 23.625 37.8Z" fill="#ECECEC"/>
<path d="M31.5 38.43C30.105 38.97 27.18 40.59 24.975 41.985C22.77 43.425 20.52 44.55 20.025 44.55C19.485 44.55 18.72 44.91 18.315 45.36C17.505 46.26 15.3 50.805 15.3 51.615C15.3 52.695 17.46 52.2 20.88 50.445C25.11 48.24 28.53 45.63 29.52 43.785C29.97 42.975 30.465 42.525 30.6 42.705C30.87 43.155 32.085 42.12 34.875 39.24L36.63 37.35H35.325C34.56 37.395 32.85 37.845 31.5 38.43Z" fill="#ECECEC"/>
<path d="M26.415 38.835C24.84 39.195 23.58 39.915 21.96 41.355C20.7 42.48 19.89 43.47 20.16 43.56C20.43 43.65 22.635 42.48 25.02 40.995C27.45 39.465 29.205 38.295 28.98 38.295C28.755 38.34 27.585 38.565 26.415 38.835Z" fill="#ECECEC"/>
<path d="M35.505 42.3C29.61 52.875 28.755 54.855 28.08 58.815C27.72 61.02 27.585 63.63 27.72 64.665C27.9 65.835 27.81 66.6 27.54 66.6C27.315 66.6 26.955 67.545 26.775 68.67C26.64 69.84 26.37 71.055 26.235 71.37C26.055 71.865 27.045 72 31.635 72H37.26L37.305 68.355C37.35 65.655 37.215 64.8 36.855 65.07C36.45 65.295 36.405 65.16 36.675 64.53C37.08 63.72 37.575 43.83 37.26 40.815C37.125 39.42 37.08 39.42 35.505 42.3Z" fill="#ECECEC"/>
<path d="M34.65 41.355C34.65 41.535 33.03 43.92 31.005 46.575C27.45 51.3 27.405 51.435 28.215 52.245C29.025 53.055 29.07 53.01 30.735 49.815C31.635 48.06 33.12 45.315 33.975 43.74C34.83 42.21 35.325 40.95 35.1 40.95C34.83 40.95 34.65 41.13 34.65 41.355Z" fill="#ECECEC"/>
<path d="M40.5 44.37C40.5 45.27 43.29 49.545 44.775 50.985C46.26 52.425 48.15 53.415 48.15 52.74C48.105 51.975 43.695 46.08 42.885 45.675C42.345 45.405 41.625 44.91 41.22 44.595C40.815 44.28 40.5 44.145 40.5 44.37Z" fill="#ECECEC"/>
<path d="M29.79 45.54C22.77 50.67 19.62 52.47 16.695 52.92C15.12 53.19 14.85 53.37 14.85 54.27C14.85 55.53 15.03 55.575 18.495 54.675C22.995 53.505 26.685 51.165 29.25 47.835C30.555 46.26 31.5 44.82 31.365 44.73C31.275 44.64 30.555 45 29.79 45.54Z" fill="#ECECEC"/>
<path d="M41.4 48.915C41.4 50.04 44.91 55.89 46.71 57.69C48.51 59.58 52.335 61.695 52.875 61.155C52.965 61.02 52.2 59.445 51.165 57.6C49.5 54.63 49.005 54.135 47.25 53.505C46.035 53.055 44.505 51.93 43.335 50.625C42.255 49.455 41.4 48.69 41.4 48.915Z" fill="#ECECEC"/>
<path d="M22.815 53.865C21.645 54.495 19.305 55.35 17.595 55.755L14.49 56.475L15.075 57.915C15.525 58.995 16.02 59.4 16.74 59.4C18.36 59.4 21.285 57.24 24.255 53.865C25.56 52.425 25.56 52.425 22.815 53.865Z" fill="#ECECEC"/>
<path d="M46.125 58.86C46.845 59.67 48.285 60.795 49.32 61.38C51.345 62.505 54 63.18 54 62.595C54 62.37 53.235 62.055 52.335 61.875C50.22 61.47 48.6 60.66 46.485 58.86L44.775 57.42L46.125 58.86Z" fill="#ECECEC"/>
<path d="M24.615 63C22.635 66.87 22.05 68.445 22.05 69.975V72H23.85H25.65L25.74 70.065C25.785 69.03 25.83 67.545 25.875 66.825C25.875 66.06 26.055 65.16 26.235 64.8C26.55 64.125 27.45 58.365 27.225 58.14C27.18 58.095 26.01 60.3 24.615 63Z" fill="#ECECEC"/>
<path d="M46.395 61.02C48.105 63.09 54.315 65.97 55.215 65.115C55.8 64.485 54.315 63.54 52.38 63.315C51.075 63.18 49.545 62.595 48.33 61.695C46.125 60.165 45.495 59.94 46.395 61.02Z" fill="#ECECEC"/>
<path d="M20.565 70.83C20.385 71.28 20.34 71.775 20.475 71.91C20.88 72.315 21.24 71.64 21.06 70.785C20.925 70.02 20.88 70.02 20.565 70.83Z" fill="#ECECEC"/>
</g>
<defs>
<clipPath id="clip0_3_10">
<rect width="77.85" height="72" rx="15" fill="white"/>
</clipPath>
</defs>
</svg>
