<?xml version="1.0" encoding="utf-8"?>
<!-- Generator: Adobe Illustrator 25.4.1, SVG Export Plug-In . SVG Version: 6.00 Build 0)  -->
<svg version="1.1" id="Ebene_1" xmlns="http://www.w3.org/2000/svg" xmlns:xlink="http://www.w3.org/1999/xlink" x="0px" y="0px"
	 viewBox="0 0 283 158.4" style="enable-background:new 0 0 283 158.4;" xml:space="preserve">
<style type="text/css">
	
		.st0{clip-path:url(#SVGID_00000068679298078487650980000016701898467942838696_);fill:url(#SVGID_00000093890743796569624760000009944128705321149631_);}
	.st1{fill:#FFFFFF;}
	.st2{fill:none;stroke:#00BAFF;stroke-linejoin:bevel;stroke-miterlimit:2;stroke-dasharray:3.013,2.013;}
	.st3{fill:none;stroke:#00BAFF;stroke-linejoin:bevel;stroke-miterlimit:2;}
	.st4{fill:none;stroke:#1D1D1B;}
	.st5{enable-background:new    ;}
	.st6{fill:#1D1D1B;}
	.st7{fill:none;stroke:#1D1D1B;stroke-dasharray:2.925,1.925;}
	.st8{fill:none;stroke:#1D1D1B;stroke-width:1.617;stroke-linejoin:bevel;stroke-miterlimit:2;}
</style>
<g>
	<path d="M6.5,88.2c0.9,0,1.6,0.1,2.3,0.5c0.7,0.3,1.2,0.7,1.7,1.2s0.8,1,1.1,1.7c0.2,0.6,0.4,1.3,0.4,1.9s-0.1,1.3-0.4,1.9
		c-0.2,0.6-0.6,1.2-1.1,1.7c-0.5,0.5-1,0.9-1.7,1.2s-1.4,0.5-2.3,0.5H3.3V88.2H6.5z M4.7,89.4v8h1.9c0.6,0,1.2-0.1,1.7-0.3
		c0.5-0.2,0.9-0.5,1.3-0.9c0.3-0.4,0.6-0.8,0.8-1.3c0.2-0.5,0.3-1,0.3-1.5s-0.1-1-0.3-1.5c-0.2-0.5-0.4-0.9-0.8-1.3
		c-0.3-0.4-0.8-0.7-1.3-0.9c-0.5-0.2-1.1-0.3-1.7-0.3H4.7z"/>
	<path d="M13.4,89.3c0-0.3,0.1-0.5,0.3-0.8c0.2-0.2,0.4-0.3,0.7-0.3s0.5,0.1,0.8,0.3s0.3,0.5,0.3,0.8c0,0.3-0.1,0.5-0.3,0.7
		s-0.5,0.3-0.8,0.3s-0.5-0.1-0.7-0.3C13.5,89.9,13.4,89.6,13.4,89.3z M13.7,91.9h1.3v6.8h-1.3V91.9z"/>
	<path d="M20.3,94.9c0.3,0.1,0.5,0.2,0.8,0.3c0.2,0.1,0.5,0.2,0.7,0.3c0.2,0.1,0.3,0.3,0.5,0.5c0.1,0.2,0.2,0.5,0.2,0.8
		c0,0.3-0.1,0.6-0.2,0.9c-0.1,0.3-0.3,0.5-0.6,0.6c-0.2,0.2-0.5,0.3-0.8,0.4c-0.3,0.1-0.7,0.1-1.1,0.1s-0.7-0.1-1.1-0.2
		s-0.6-0.3-0.9-0.5c-0.3-0.2-0.5-0.5-0.6-0.8c-0.2-0.3-0.2-0.7-0.2-1.1h1.3c0,0.5,0.2,0.9,0.5,1.1c0.3,0.2,0.7,0.3,1.1,0.3
		c0.4,0,0.8-0.1,1-0.2s0.4-0.4,0.4-0.7c0-0.2-0.1-0.3-0.2-0.5s-0.2-0.2-0.4-0.3s-0.4-0.2-0.7-0.2c-0.3-0.1-0.6-0.2-0.9-0.3
		c-0.3-0.1-0.5-0.2-0.7-0.3s-0.4-0.2-0.6-0.3c-0.2-0.1-0.3-0.3-0.4-0.5C17.1,94.3,17,94,17,93.7c0-0.3,0.1-0.6,0.2-0.8
		c0.1-0.2,0.3-0.4,0.5-0.6s0.5-0.3,0.8-0.4c0.3-0.1,0.6-0.1,1-0.1c0.4,0,0.7,0.1,1,0.2c0.3,0.1,0.6,0.3,0.8,0.5
		c0.2,0.2,0.4,0.4,0.6,0.7c0.1,0.3,0.2,0.6,0.2,0.9h-1.3c0-0.4-0.1-0.7-0.4-0.9c-0.2-0.2-0.6-0.3-1-0.3c-0.4,0-0.7,0.1-0.9,0.2
		c-0.2,0.2-0.4,0.4-0.4,0.7c0,0.2,0,0.3,0.1,0.4s0.2,0.2,0.4,0.3c0.2,0.1,0.4,0.2,0.6,0.2C19.7,94.7,20,94.8,20.3,94.9z"/>
	<path d="M27.6,98.7c-0.1,0-0.3,0-0.5,0.1c-0.2,0-0.4,0-0.7,0c-0.2,0-0.4,0-0.7-0.1c-0.2,0-0.5-0.1-0.7-0.3s-0.4-0.4-0.5-0.7
		c-0.1-0.3-0.2-0.8-0.2-1.3V93H23v-1.1h1.3v-2.3h1.3v2.3h1.8V93h-1.8v3.1c0,0.3,0,0.6,0.1,0.8c0.1,0.2,0.1,0.3,0.2,0.4
		c0.1,0.1,0.2,0.2,0.4,0.2c0.1,0,0.3,0,0.5,0c0.1,0,0.3,0,0.5,0s0.3,0,0.4,0V98.7z"/>
	<path d="M35.5,91.9v6.8h-1.3v-1.2c-0.2,0.4-0.5,0.8-1,1c-0.4,0.2-0.9,0.4-1.4,0.4c-0.5,0-1-0.1-1.4-0.3c-0.4-0.2-0.8-0.5-1.1-0.8
		c-0.3-0.3-0.5-0.7-0.7-1.1c-0.2-0.4-0.3-0.9-0.3-1.4c0-0.5,0.1-0.9,0.3-1.4c0.2-0.4,0.4-0.8,0.7-1.1c0.3-0.3,0.7-0.6,1.1-0.8
		c0.4-0.2,0.9-0.3,1.4-0.3c0.5,0,1,0.1,1.4,0.4c0.4,0.2,0.8,0.6,1,1v-1.2H35.5z M31.9,97.7c0.4,0,0.7-0.1,1-0.2
		c0.3-0.1,0.5-0.3,0.7-0.5c0.2-0.2,0.4-0.5,0.5-0.8c0.1-0.3,0.2-0.6,0.2-0.9s-0.1-0.6-0.2-0.9c-0.1-0.3-0.3-0.5-0.5-0.8
		c-0.2-0.2-0.4-0.4-0.7-0.5c-0.3-0.1-0.6-0.2-1-0.2c-0.4,0-0.7,0.1-0.9,0.2c-0.3,0.1-0.5,0.3-0.7,0.5c-0.2,0.2-0.3,0.5-0.5,0.8
		s-0.2,0.6-0.2,0.9s0.1,0.6,0.2,0.9s0.3,0.5,0.5,0.8c0.2,0.2,0.4,0.4,0.7,0.5C31.3,97.6,31.6,97.7,31.9,97.7z"/>
	<path d="M37.9,91.9h1.3v1.2c0.2-0.4,0.5-0.8,0.9-1c0.4-0.2,0.9-0.4,1.5-0.4c0.5,0,0.9,0.1,1.2,0.2s0.6,0.4,0.8,0.7
		c0.2,0.3,0.3,0.5,0.4,0.9c0.1,0.3,0.1,0.7,0.1,1.2v4h-1.3v-3.6c0-0.3,0-0.6-0.1-0.9c-0.1-0.3-0.2-0.5-0.3-0.7
		c-0.1-0.2-0.3-0.4-0.5-0.5c-0.2-0.1-0.5-0.2-0.8-0.2c-0.3,0-0.6,0.1-0.9,0.2c-0.2,0.1-0.4,0.3-0.6,0.5c-0.2,0.2-0.3,0.5-0.4,0.7
		c-0.1,0.3-0.1,0.6-0.1,0.9v3.5h-1.3V91.9z"/>
	<path d="M51.1,94.4c-0.1-0.4-0.2-0.8-0.5-1.1c-0.3-0.3-0.7-0.4-1.4-0.4c-0.4,0-0.7,0.1-0.9,0.2c-0.3,0.1-0.5,0.3-0.7,0.5
		s-0.3,0.5-0.4,0.8s-0.1,0.6-0.1,0.9s0,0.6,0.1,0.9c0.1,0.3,0.2,0.5,0.4,0.8c0.2,0.2,0.4,0.4,0.7,0.5c0.3,0.1,0.6,0.2,1,0.2
		c0.6,0,1-0.1,1.3-0.4s0.5-0.6,0.6-1h1.3c-0.1,0.3-0.2,0.7-0.3,1c-0.2,0.3-0.4,0.6-0.6,0.8c-0.3,0.2-0.6,0.4-1,0.5
		c-0.4,0.1-0.8,0.2-1.3,0.2c-0.6,0-1-0.1-1.5-0.3c-0.4-0.2-0.8-0.5-1.1-0.8c-0.3-0.3-0.5-0.7-0.7-1.1s-0.2-0.9-0.2-1.3
		s0.1-0.9,0.2-1.3s0.4-0.8,0.6-1.1c0.3-0.3,0.6-0.6,1.1-0.8c0.4-0.2,0.9-0.3,1.5-0.3c0.5,0,1,0.1,1.4,0.2c0.4,0.2,0.7,0.4,1,0.6
		c0.3,0.2,0.4,0.5,0.6,0.8c0.1,0.3,0.2,0.6,0.2,1H51.1z"/>
	<path d="M53.9,89.3c0-0.3,0.1-0.5,0.3-0.8c0.2-0.2,0.4-0.3,0.7-0.3s0.5,0.1,0.8,0.3S56,89,56,89.3c0,0.3-0.1,0.5-0.3,0.7
		s-0.5,0.3-0.8,0.3s-0.5-0.1-0.7-0.3C54,89.9,53.9,89.6,53.9,89.3z M54.3,91.9h1.3v6.8h-1.3V91.9z"/>
	<path d="M64.6,91.9v6.8h-1.3v-1.2c-0.2,0.4-0.5,0.8-1,1c-0.4,0.2-0.9,0.4-1.4,0.4c-0.5,0-1-0.1-1.4-0.3c-0.4-0.2-0.8-0.5-1.1-0.8
		c-0.3-0.3-0.5-0.7-0.7-1.1c-0.2-0.4-0.3-0.9-0.3-1.4c0-0.5,0.1-0.9,0.3-1.4c0.2-0.4,0.4-0.8,0.7-1.1c0.3-0.3,0.7-0.6,1.1-0.8
		c0.4-0.2,0.9-0.3,1.4-0.3c0.5,0,1,0.1,1.4,0.4c0.4,0.2,0.8,0.6,1,1v-1.2H64.6z M61,97.7c0.4,0,0.7-0.1,1-0.2
		c0.3-0.1,0.5-0.3,0.7-0.5c0.2-0.2,0.4-0.5,0.5-0.8c0.1-0.3,0.2-0.6,0.2-0.9s-0.1-0.6-0.2-0.9c-0.1-0.3-0.3-0.5-0.5-0.8
		c-0.2-0.2-0.4-0.4-0.7-0.5c-0.3-0.1-0.6-0.2-1-0.2S60.3,93,60,93.1c-0.3,0.1-0.5,0.3-0.7,0.5c-0.2,0.2-0.3,0.5-0.5,0.8
		s-0.2,0.6-0.2,0.9s0.1,0.6,0.2,0.9s0.3,0.5,0.5,0.8c0.2,0.2,0.4,0.4,0.7,0.5C60.3,97.6,60.6,97.7,61,97.7z"/>
</g>
<g>
	<g>
		<g>
			<defs>
				<polygon id="SVGID_1_" points="106.7,135 174.9,10.9 186.6,10.9 254.7,135 				"/>
			</defs>
			<clipPath id="SVGID_00000160891148134989725850000002257029639795276987_">
				<use xlink:href="#SVGID_1_"  style="overflow:visible;"/>
			</clipPath>
			
				<linearGradient id="SVGID_00000034091103726460197440000000246421204949615528_" gradientUnits="userSpaceOnUse" x1="-410.5531" y1="523.0009" x2="-409.5531" y2="523.0009" gradientTransform="matrix(0 -111.9331 111.9331 0 -58360.3789 -45819.4766)">
				<stop  offset="0" style="stop-color:#FFFFFF"/>
				<stop  offset="1" style="stop-color:#40B4E8"/>
			</linearGradient>
			
				<rect x="106.7" y="10.9" style="clip-path:url(#SVGID_00000160891148134989725850000002257029639795276987_);fill:url(#SVGID_00000034091103726460197440000000246421204949615528_);" width="148" height="124.1"/>
		</g>
	</g>
</g>
<g>
	<path class="st1" d="M180.7,157.9c40.9,0,74-9.3,74-20.7s-33.1-20.7-74-20.7s-74,9.3-74,20.7S139.9,157.9,180.7,157.9"/>
	<path class="st2" d="M184.3,157.9c36.3-0.5,65.8-8.3,70-18.2"/>
	<path class="st2" d="M253.8,133.9c-5.6-9.6-34.9-17-70.5-17.3"/>
	<path class="st2" d="M177.2,116.5c-36.3,0.5-65.8,8.3-70,18.2"/>
	<path class="st2" d="M107.7,140.5c5.6,9.6,34.9,17,70.5,17.3"/>
	<path class="st3" d="M179.2,157.9c0.5,0,1,0,1.5,0s1,0,1.5,0 M106.9,135.7c-0.1,0.5-0.2,1-0.2,1.5s0.1,1,0.2,1.5 M182.2,116.5
		c-0.5,0-1,0-1.5,0s-1,0-1.5,0 M254.6,138.7c0.1-0.5,0.2-1,0.2-1.5s-0.1-1-0.2-1.5"/>
</g>
<polyline class="st4" points="130.5,135 98.7,135 98.7,50.4 131.7,50.4 "/>
<polyline class="st4" points="126.5,131.3 130.5,135 126.5,138.7 "/>
<polyline class="st4" points="127.7,46.7 131.7,50.4 127.7,54.1 "/>
<g class="st5">
	<path class="st6" d="M163.5,141.3v1.2h-4.8V132h1.4v9.3H163.5z"/>
</g>
<g class="st5">
	<path class="st6" d="M171.3,135.7v6.8H170v-1.2c-0.2,0.4-0.5,0.8-0.9,1s-0.9,0.4-1.5,0.4c-0.5,0-0.9-0.1-1.2-0.2s-0.6-0.4-0.8-0.7
		s-0.3-0.5-0.4-0.9s-0.1-0.7-0.1-1.2v-4h1.3v3.6c0,0.3,0,0.6,0.1,0.9c0.1,0.3,0.2,0.5,0.3,0.7s0.3,0.4,0.5,0.5s0.5,0.2,0.8,0.2
		s0.6-0.1,0.9-0.2s0.4-0.3,0.6-0.5s0.3-0.5,0.4-0.7c0.1-0.3,0.1-0.6,0.1-0.9v-3.5h1.2V135.7z"/>
</g>
<g class="st5">
	<path class="st6" d="M179.1,142.5h-1.5l-1.6-2.4l-1.6,2.4h-1.5l2.3-3.4l-2.3-3.4h1.5l1.5,2.4l1.5-2.4h1.5l-2.3,3.4L179.1,142.5z"/>
</g>
<g class="st5">
	<path class="st6" d="M189,131.8c-0.3,0-0.6,0.1-0.9,0.2c-0.3,0.1-0.5,0.3-0.7,0.5s-0.3,0.5-0.4,0.7c-0.1,0.3-0.2,0.6-0.2,0.9v8.4
		c0,0.3,0.1,0.6,0.2,0.9c0.1,0.3,0.3,0.5,0.4,0.7c0.2,0.2,0.4,0.4,0.7,0.5s0.6,0.2,0.9,0.2v1.2c-0.5,0-1-0.1-1.5-0.3
		c-0.4-0.2-0.8-0.4-1.1-0.8c-0.3-0.3-0.5-0.7-0.7-1.1c-0.2-0.4-0.3-0.9-0.3-1.4V134c0-0.5,0.1-0.9,0.3-1.4c0.2-0.4,0.4-0.8,0.7-1.1
		s0.7-0.6,1.1-0.8c0.4-0.2,0.9-0.3,1.5-0.3V131.8z"/>
</g>
<g class="st5">
	<path class="st6" d="M190.6,132h1.3v10.5h-1.3V132z"/>
</g>
<g class="st5">
	<path class="st6" d="M199.7,142.5h-1.5l-1.6-2.4l-1.6,2.4h-1.5l2.3-3.4l-2.3-3.4h1.5l1.5,2.4l1.5-2.4h1.5l-2.3,3.4L199.7,142.5z"/>
</g>
<g class="st5">
	<path class="st6" d="M199.9,130.6c0.5,0,1,0.1,1.5,0.3c0.4,0.2,0.8,0.4,1.1,0.8c0.3,0.3,0.5,0.7,0.7,1.1c0.2,0.4,0.3,0.9,0.3,1.4
		v8.4c0,0.5-0.1,0.9-0.3,1.4c-0.2,0.4-0.4,0.8-0.7,1.1s-0.7,0.6-1.1,0.8c-0.4,0.2-0.9,0.3-1.5,0.3V145c0.3,0,0.6-0.1,0.9-0.2
		c0.3-0.1,0.5-0.3,0.7-0.5s0.3-0.5,0.4-0.7c0.1-0.3,0.2-0.6,0.2-0.9v-8.4c0-0.3-0.1-0.6-0.2-0.9c-0.1-0.3-0.3-0.5-0.4-0.7
		c-0.2-0.2-0.4-0.4-0.7-0.5s-0.6-0.2-0.9-0.2V130.6z"/>
</g>
<g class="st5">
	<path class="st6" d="M73.4,87.6c-0.3,0-0.6,0.1-0.9,0.2s-0.5,0.3-0.7,0.5s-0.3,0.5-0.4,0.7c-0.1,0.3-0.2,0.6-0.2,0.9v8.4
		c0,0.3,0.1,0.6,0.2,0.9s0.3,0.5,0.4,0.7c0.2,0.2,0.4,0.4,0.7,0.5c0.3,0.1,0.6,0.2,0.9,0.2v1.2c-0.5,0-1-0.1-1.5-0.3
		c-0.4-0.2-0.8-0.4-1.1-0.8s-0.5-0.7-0.7-1.1c-0.2-0.4-0.3-0.9-0.3-1.4v-8.4c0-0.5,0.1-0.9,0.3-1.4c0.2-0.4,0.4-0.8,0.7-1.1
		s0.7-0.6,1.1-0.8c0.4-0.2,0.9-0.3,1.5-0.3V87.6z"/>
</g>
<g class="st5">
	<path class="st6" d="M74.9,87.8h3.7c0.5,0,1,0.1,1.5,0.3c0.4,0.2,0.8,0.5,1.1,0.8c0.3,0.3,0.6,0.7,0.7,1.1c0.2,0.4,0.3,0.9,0.3,1.4
		c0,0.4-0.1,0.7-0.2,1.1s-0.3,0.7-0.5,1s-0.4,0.5-0.7,0.8c-0.3,0.2-0.6,0.4-1,0.5l2.2,3.6h-1.6l-2.1-3.3h-2v3.3h-1.4V87.8z
		 M78.6,93.7c0.3,0,0.6-0.1,0.9-0.2s0.5-0.3,0.7-0.5s0.3-0.5,0.5-0.7s0.2-0.6,0.2-0.9s-0.1-0.6-0.2-0.9s-0.3-0.5-0.5-0.8
		c-0.2-0.2-0.4-0.4-0.7-0.5C79.3,89.1,79,89,78.6,89h-2.3v4.7H78.6z"/>
</g>
<g class="st5">
	<path class="st6" d="M82.9,86.4c0.5,0,1,0.1,1.5,0.3c0.4,0.2,0.8,0.4,1.1,0.8c0.3,0.3,0.5,0.7,0.7,1.1s0.3,0.9,0.3,1.4v8.4
		c0,0.5-0.1,0.9-0.3,1.4c-0.2,0.4-0.4,0.8-0.7,1.1c-0.3,0.3-0.7,0.6-1.1,0.8c-0.4,0.2-0.9,0.3-1.5,0.3v-1.2c0.3,0,0.6-0.1,0.9-0.2
		s0.5-0.3,0.7-0.5s0.3-0.5,0.4-0.7s0.2-0.6,0.2-0.9v-8.4c0-0.3-0.1-0.6-0.2-0.9s-0.3-0.5-0.4-0.7s-0.4-0.4-0.7-0.5
		c-0.3-0.1-0.6-0.2-0.9-0.2V86.4z"/>
</g>
<g class="st5">
	<path class="st6" d="M201.5,83.9c-0.1,0.5-0.3,0.9-0.6,1.4s-0.7,0.8-1.1,1.1c-0.4,0.3-0.9,0.6-1.4,0.7c-0.5,0.2-1.1,0.3-1.8,0.3
		c-0.9,0-1.6-0.2-2.3-0.5s-1.3-0.7-1.7-1.2c-0.5-0.5-0.8-1.1-1.1-1.7s-0.4-1.4-0.4-2.1s0.1-1.4,0.4-2.1c0.2-0.7,0.6-1.2,1.1-1.7
		s1-0.9,1.7-1.2c0.7-0.3,1.4-0.5,2.2-0.5s1.4,0.1,2,0.3s1.1,0.5,1.5,0.8s0.8,0.8,1,1.2s0.4,1,0.5,1.5h-1.4c-0.1-0.4-0.2-0.7-0.4-1.1
		c-0.2-0.3-0.4-0.6-0.7-0.9s-0.6-0.4-1-0.6c-0.4-0.1-0.8-0.2-1.3-0.2c-0.6,0-1.2,0.1-1.7,0.4c-0.5,0.2-0.9,0.5-1.3,0.9
		c-0.3,0.4-0.6,0.8-0.8,1.4c-0.2,0.5-0.3,1-0.3,1.6s0.1,1.1,0.3,1.6s0.5,1,0.8,1.4c0.4,0.4,0.8,0.7,1.3,0.9c0.5,0.2,1.1,0.3,1.8,0.3
		c0.4,0,0.7-0.1,1.1-0.2c0.3-0.1,0.7-0.3,1-0.5s0.5-0.4,0.8-0.7c0.2-0.3,0.4-0.6,0.5-0.9h1.3V83.9z"/>
</g>
<g class="st5">
	<path class="st6" d="M210.2,80.4v6.8h-1.3V86c-0.2,0.4-0.5,0.8-1,1c-0.4,0.2-0.9,0.4-1.4,0.4s-1-0.1-1.4-0.3
		c-0.4-0.2-0.8-0.5-1.1-0.8s-0.5-0.7-0.7-1.1s-0.3-0.9-0.3-1.4s0.1-0.9,0.3-1.4c0.2-0.4,0.4-0.8,0.7-1.1c0.3-0.3,0.7-0.6,1.1-0.8
		c0.4-0.2,0.9-0.3,1.4-0.3s1,0.1,1.4,0.4s0.8,0.6,1,1v-1.2C208.9,80.4,210.2,80.4,210.2,80.4z M206.6,86.2c0.3,0,0.7-0.1,1-0.2
		s0.5-0.3,0.7-0.5s0.4-0.5,0.5-0.8s0.2-0.6,0.2-0.9s-0.1-0.6-0.2-0.9s-0.3-0.5-0.5-0.8c-0.2-0.2-0.4-0.4-0.7-0.5s-0.6-0.2-1-0.2
		s-0.7,0.1-0.9,0.2s-0.5,0.3-0.7,0.5s-0.3,0.5-0.5,0.8c-0.1,0.3-0.2,0.6-0.2,0.9s0.1,0.6,0.2,0.9c0.1,0.3,0.3,0.5,0.5,0.8
		c0.2,0.2,0.4,0.4,0.7,0.5S206.3,86.2,206.6,86.2z"/>
</g>
<g class="st5">
	<path class="st6" d="M212.8,80.4h1.3v1.2c0.2-0.4,0.5-0.8,0.9-1s0.9-0.4,1.5-0.4c0.5,0,0.9,0.1,1.2,0.2c0.3,0.2,0.6,0.4,0.8,0.7
		c0.2,0.3,0.3,0.5,0.4,0.9s0.1,0.7,0.1,1.2v4h-1.3v-3.6c0-0.3,0-0.6-0.1-0.9s-0.2-0.5-0.3-0.7s-0.3-0.4-0.5-0.5s-0.5-0.2-0.8-0.2
		s-0.6,0.1-0.9,0.2c-0.2,0.1-0.4,0.3-0.6,0.5c-0.2,0.2-0.3,0.5-0.4,0.7c-0.1,0.3-0.1,0.6-0.1,0.9v3.5h-1.3v-6.7H212.8z"/>
</g>
<g class="st5">
	<path class="st6" d="M226.9,86c-0.2,0.4-0.5,0.8-1,1c-0.4,0.2-0.9,0.4-1.4,0.4s-1-0.1-1.4-0.3c-0.4-0.2-0.8-0.5-1.1-0.8
		s-0.5-0.7-0.7-1.1s-0.3-0.9-0.3-1.4s0.1-0.9,0.3-1.4c0.2-0.4,0.4-0.8,0.7-1.1c0.3-0.3,0.7-0.6,1.1-0.8c0.4-0.2,0.9-0.3,1.4-0.3
		s1,0.1,1.4,0.4s0.8,0.6,1,1v-4.9h1.3v10.5h-1.3V86z M224.6,86.2c0.3,0,0.7-0.1,1-0.2s0.5-0.3,0.7-0.5s0.4-0.5,0.5-0.8
		s0.2-0.6,0.2-0.9s-0.1-0.6-0.2-0.9s-0.3-0.5-0.5-0.8c-0.2-0.2-0.4-0.4-0.7-0.5s-0.6-0.2-1-0.2s-0.7,0.1-0.9,0.2s-0.5,0.3-0.7,0.5
		s-0.3,0.5-0.5,0.8c-0.1,0.3-0.2,0.6-0.2,0.9s0.1,0.6,0.2,0.9c0.1,0.3,0.3,0.5,0.5,0.8c0.2,0.2,0.4,0.4,0.7,0.5
		S224.2,86.2,224.6,86.2z"/>
</g>
<g class="st5">
	<path class="st6" d="M231.6,84.1c0,0.3,0.1,0.6,0.1,0.8c0.1,0.3,0.2,0.5,0.4,0.7s0.4,0.3,0.6,0.5c0.3,0.1,0.6,0.2,1,0.2
		c0.5,0,0.9-0.1,1.2-0.3c0.3-0.2,0.5-0.5,0.6-0.8h1.3c-0.1,0.3-0.2,0.6-0.3,0.8c-0.2,0.3-0.4,0.5-0.6,0.7c-0.3,0.2-0.6,0.4-0.9,0.5
		c-0.4,0.1-0.7,0.2-1.2,0.2c-0.6,0-1.1-0.1-1.5-0.3c-0.4-0.2-0.8-0.4-1.1-0.8s-0.5-0.7-0.6-1.1s-0.2-0.9-0.2-1.4s0.1-1,0.2-1.4
		c0.1-0.4,0.4-0.8,0.7-1.1s0.6-0.6,1-0.8c0.4-0.2,0.9-0.3,1.4-0.3c0.4,0,0.9,0.1,1.2,0.2c0.4,0.2,0.7,0.4,1,0.7
		c0.3,0.3,0.5,0.6,0.7,1s0.2,0.8,0.2,1.2c0,0.1,0,0.2,0,0.4c0,0.1,0,0.3-0.1,0.5L231.6,84.1L231.6,84.1z M233.6,81.2
		c-0.6,0-1.1,0.2-1.4,0.5c-0.4,0.3-0.6,0.8-0.6,1.4h3.9c0-0.6-0.2-1.1-0.5-1.4C234.6,81.3,234.2,81.2,233.6,81.2z"/>
</g>
<g class="st5">
	<path class="st6" d="M239,76.7h1.3v10.5H239V76.7z"/>
</g>
<g class="st5">
	<path class="st6" d="M249.5,80.4v6.8h-1.3V86c-0.2,0.4-0.5,0.8-1,1c-0.4,0.2-0.9,0.4-1.4,0.4s-1-0.1-1.4-0.3
		c-0.4-0.2-0.8-0.5-1.1-0.8s-0.5-0.7-0.7-1.1s-0.3-0.9-0.3-1.4s0.1-0.9,0.3-1.4c0.2-0.4,0.4-0.8,0.7-1.1s0.7-0.6,1.1-0.8
		c0.4-0.2,0.9-0.3,1.4-0.3s1,0.1,1.4,0.4c0.4,0.2,0.8,0.6,1,1v-1.2C248.2,80.4,249.5,80.4,249.5,80.4z M245.9,86.2
		c0.4,0,0.7-0.1,1-0.2s0.5-0.3,0.7-0.5s0.4-0.5,0.5-0.8s0.2-0.6,0.2-0.9s-0.1-0.6-0.2-0.9c-0.1-0.3-0.3-0.5-0.5-0.8
		c-0.2-0.2-0.4-0.4-0.7-0.5s-0.6-0.2-1-0.2c-0.3,0-0.7,0.1-0.9,0.2c-0.3,0.1-0.5,0.3-0.7,0.5s-0.3,0.5-0.5,0.8
		c-0.1,0.3-0.2,0.6-0.2,0.9s0.1,0.6,0.2,0.9c0.1,0.3,0.3,0.5,0.5,0.8c0.2,0.2,0.4,0.4,0.7,0.5C245.3,86.1,245.6,86.2,245.9,86.2z"/>
</g>
<g class="st5">
	<path class="st6" d="M260.3,76.5c-0.3,0-0.6,0.1-0.9,0.2c-0.3,0.1-0.5,0.3-0.7,0.5c-0.2,0.2-0.3,0.5-0.4,0.7
		c-0.1,0.3-0.2,0.6-0.2,0.9v8.4c0,0.3,0.1,0.6,0.2,0.9c0.1,0.3,0.3,0.5,0.4,0.7c0.2,0.2,0.4,0.4,0.7,0.5c0.3,0.1,0.6,0.2,0.9,0.2
		v1.2c-0.5,0-1-0.1-1.5-0.3c-0.4-0.2-0.8-0.4-1.1-0.8c-0.3-0.3-0.5-0.7-0.7-1.1c-0.2-0.4-0.3-0.9-0.3-1.4v-8.4
		c0-0.5,0.1-0.9,0.3-1.4c0.2-0.4,0.4-0.8,0.7-1.1c0.3-0.3,0.7-0.6,1.1-0.8c0.4-0.2,0.9-0.3,1.5-0.3V76.5z"/>
</g>
<g class="st5">
	<path class="st6" d="M266.2,82.8c0-0.4-0.2-0.8-0.5-1.1c-0.3-0.3-0.7-0.4-1.4-0.4c-0.4,0-0.7,0.1-0.9,0.2s-0.5,0.3-0.7,0.5
		s-0.3,0.5-0.4,0.8s-0.1,0.6-0.1,0.9s0,0.6,0.1,0.9s0.2,0.5,0.4,0.8c0.2,0.2,0.4,0.4,0.7,0.5c0.3,0.1,0.6,0.2,1,0.2
		c0.6,0,1-0.1,1.3-0.4c0.3-0.2,0.5-0.6,0.6-1h1.3c-0.1,0.3-0.2,0.7-0.3,1s-0.4,0.6-0.6,0.8c-0.3,0.2-0.6,0.4-1,0.5s-0.8,0.2-1.3,0.2
		c-0.6,0-1-0.1-1.5-0.3c-0.4-0.2-0.8-0.5-1.1-0.8c-0.3-0.3-0.5-0.7-0.7-1.1c-0.1-0.4-0.2-0.9-0.2-1.3s0.1-0.9,0.2-1.3
		c0.1-0.4,0.4-0.8,0.6-1.1s0.6-0.6,1.1-0.8c0.4-0.2,0.9-0.3,1.5-0.3s1,0.1,1.4,0.2c0.4,0.2,0.7,0.4,1,0.6s0.5,0.5,0.6,0.8
		s0.2,0.6,0.2,1L266.2,82.8L266.2,82.8z"/>
</g>
<g class="st5">
	<path class="st6" d="M275,86c-0.2,0.4-0.5,0.8-1,1c-0.4,0.2-0.9,0.4-1.4,0.4s-1-0.1-1.4-0.3c-0.4-0.2-0.8-0.5-1.1-0.8
		s-0.5-0.7-0.7-1.1s-0.3-0.9-0.3-1.4s0.1-0.9,0.3-1.4c0.2-0.4,0.4-0.8,0.7-1.1s0.7-0.6,1.1-0.8c0.4-0.2,0.9-0.3,1.4-0.3
		s1,0.1,1.4,0.4c0.4,0.2,0.8,0.6,1,1v-4.9h1.3v10.5H275V86z M272.7,86.2c0.4,0,0.7-0.1,1-0.2s0.5-0.3,0.7-0.5s0.4-0.5,0.5-0.8
		s0.2-0.6,0.2-0.9s-0.1-0.6-0.2-0.9s-0.3-0.5-0.5-0.8c-0.2-0.2-0.4-0.4-0.7-0.5c-0.3-0.1-0.6-0.2-1-0.2c-0.3,0-0.7,0.1-0.9,0.2
		c-0.3,0.1-0.5,0.3-0.7,0.5s-0.3,0.5-0.5,0.8c-0.1,0.3-0.2,0.6-0.2,0.9s0.1,0.6,0.2,0.9s0.3,0.5,0.5,0.8c0.2,0.2,0.4,0.4,0.7,0.5
		C272,86.1,272.3,86.2,272.7,86.2z"/>
	<path class="st6" d="M277.9,75.3c0.5,0,1,0.1,1.5,0.3c0.4,0.2,0.8,0.4,1.1,0.8c0.3,0.3,0.5,0.7,0.7,1.1s0.3,0.9,0.3,1.4v8.4
		c0,0.5-0.1,0.9-0.3,1.4c-0.2,0.4-0.4,0.8-0.7,1.1c-0.3,0.3-0.7,0.6-1.1,0.8c-0.4,0.2-0.9,0.3-1.5,0.3v-1.2c0.3,0,0.6-0.1,0.9-0.2
		s0.5-0.3,0.7-0.5s0.3-0.5,0.4-0.7c0.1-0.3,0.2-0.6,0.2-0.9V79c0-0.3-0.1-0.6-0.2-0.9s-0.3-0.5-0.4-0.7c-0.2-0.2-0.4-0.4-0.7-0.5
		c-0.3-0.1-0.6-0.2-0.9-0.2V75.3z"/>
</g>
<line class="st7" x1="181.9" y1="50.4" x2="181.9" y2="111.6"/>
<polyline class="st4" points="185.6,107.5 181.9,111.6 178.2,107.5 "/>
<g>
	<path class="st8" d="M206.9,0.8h-52.3 M160.8,1h40v8.3h-40V1z"/>
	<path class="st1" d="M163,9.4v21c0,10.3,7.9,18.7,17.8,18.7c9.8,0,17.8-8.4,17.8-18.7V9.3L163,9.4z"/>
	<path class="st8" d="M163,9.4v21c0,10.3,7.9,18.7,17.8,18.7c9.8,0,17.8-8.4,17.8-18.7V9.3L163,9.4z"/>
</g>
</svg>
